<svg width="23" height="23" viewBox="0 0 23 23" fill="none" xmlns="http://www.w3.org/2000/svg">
<path fill-rule="evenodd" clip-rule="evenodd" d="M15.8125 21.6523C15.8125 22.3955 15.208 23 14.4648 23H1.34766C0.604515 23 0 22.3955 0 21.6523V4.94141C0 4.19827 0.604515 3.59375 1.34766 3.59375H3.67096C3.85644 3.07083 4.35584 2.69531 4.94141 2.69531H5.70718C5.67595 2.54809 5.66016 2.39806 5.66016 2.24609C5.66016 1.00758 6.66774 0 7.90625 0C9.14476 0 10.1523 1.00758 10.1523 2.24609C10.1523 2.39806 10.1366 2.54809 10.1053 2.69531H10.8711C11.4567 2.69531 11.9561 3.07083 12.1415 3.59375H14.4648C15.208 3.59375 15.8125 4.19827 15.8125 4.94141V21.6523ZM13.1172 20.3047V18.2448L11.0573 20.3047H13.1172ZM10.4219 17.6094V19.6693L12.4818 17.6094H10.4219ZM9.97266 16.7109H13.1172V6.28906H2.69531V20.3047H9.52344V17.1602C9.52344 16.912 9.72453 16.7109 9.97266 16.7109ZM6.35908 3.59375H4.94141C4.69363 3.59375 4.49219 3.7952 4.49219 4.04297V5.39062H11.3203V4.04297C11.3203 3.7952 11.1189 3.59375 10.8711 3.59375H9.45342C9.29251 3.59375 9.14406 3.50794 9.06387 3.36844C8.98367 3.22911 8.9842 3.0575 9.06509 2.91852C9.19038 2.70338 9.25391 2.47702 9.25391 2.24609C9.25391 1.50295 8.64939 0.898438 7.90625 0.898438C7.16311 0.898438 6.55859 1.50295 6.55859 2.24609C6.55859 2.47702 6.62212 2.70338 6.74741 2.91852C6.8283 3.0575 6.82865 3.22911 6.74863 3.36844C6.66844 3.50777 6.51999 3.59375 6.35908 3.59375ZM0.898438 4.94141V21.6523C0.898438 21.9001 1.09988 22.1016 1.34766 22.1016H14.4648C14.7126 22.1016 14.9141 21.9001 14.9141 21.6523V4.94141C14.9141 4.69363 14.7126 4.49219 14.4648 4.49219H12.2188V5.39062H13.5664C13.8145 5.39062 14.0156 5.59172 14.0156 5.83984V20.7539C14.0156 21.002 13.8145 21.2031 13.5664 21.2031H2.24609C1.99797 21.2031 1.79688 21.002 1.79688 20.7539V5.83984C1.79688 5.59172 1.99797 5.39062 2.24609 5.39062H3.59375V4.49219H1.34766C1.09988 4.49219 0.898438 4.69363 0.898438 4.94141ZM8.35547 2.24609C8.35547 2.49404 8.1542 2.69531 7.90625 2.69531C7.6583 2.69531 7.45703 2.49404 7.45703 2.24609C7.45703 1.99815 7.6583 1.79688 7.90625 1.79688C8.1542 1.79688 8.35547 1.99815 8.35547 2.24609ZM5.39062 8.80469C5.39062 9.05264 5.18935 9.25391 4.94141 9.25391C4.69346 9.25391 4.49219 9.05264 4.49219 8.80469C4.49219 8.55674 4.69346 8.35547 4.94141 8.35547C5.18935 8.35547 5.39062 8.55674 5.39062 8.80469ZM21.6523 6.55859H21.2031V5.66016C21.2031 5.21831 21.0441 4.80085 20.7539 4.47253V3.41406C20.7539 2.67092 20.1494 2.06641 19.4062 2.06641C18.6631 2.06641 18.0586 2.67092 18.0586 3.41406V4.47306C17.7712 4.79874 17.6094 5.22076 17.6094 5.66016V18.0586C17.6094 20.0513 18.6239 21.3664 18.8941 21.7165C18.9278 21.7603 18.95 21.789 18.957 21.802V22.5508C18.957 22.7989 19.1581 23 19.4062 23C19.6544 23 19.8555 22.7989 19.8555 22.5508V21.802C19.8626 21.7889 19.8848 21.7602 19.9188 21.7164C20.1895 21.3675 21.2031 20.0609 21.2031 18.0586V7.45703H21.6523C21.9001 7.45703 22.1016 7.65848 22.1016 7.90625V11.5C22.1016 11.7481 22.3027 11.9492 22.5508 11.9492C22.7989 11.9492 23 11.7481 23 11.5V7.90625C23 7.16311 22.3955 6.55859 21.6523 6.55859ZM18.5078 5.66016C18.5078 5.16689 18.9097 4.76172 19.4062 4.76172C19.89 4.76172 20.3047 5.15303 20.3047 5.66016V6.55859H18.5078V5.66016ZM19.4062 2.96484C19.654 2.96484 19.8555 3.16629 19.8555 3.41406V3.92084C19.71 3.88311 19.5591 3.86328 19.4062 3.86328C19.2532 3.86328 19.1025 3.88311 18.957 3.92066V3.41406C18.957 3.16629 19.1585 2.96484 19.4062 2.96484ZM19.4062 20.8996C18.9119 20.1954 18.608 19.3633 18.5287 18.5073H20.2838C20.2045 19.3633 19.9006 20.1954 19.4062 20.8996ZM18.5078 17.6094V7.45703H20.3047V17.6094H18.5078ZM10.8711 8.35547H6.73828C6.49016 8.35547 6.28906 8.55656 6.28906 8.80469C6.28906 9.05281 6.49016 9.25391 6.73828 9.25391H10.8711C11.1192 9.25391 11.3203 9.05281 11.3203 8.80469C11.3203 8.55656 11.1192 8.35547 10.8711 8.35547ZM4.49219 13.5664C4.49219 13.3183 4.69328 13.1172 4.94141 13.1172H10.8711C11.1192 13.1172 11.3203 13.3183 11.3203 13.5664C11.3203 13.8145 11.1192 14.0156 10.8711 14.0156H4.94141C4.69328 14.0156 4.49219 13.8145 4.49219 13.5664ZM4.94141 14.9141C4.69328 14.9141 4.49219 15.1152 4.49219 15.3633C4.49219 15.6114 4.69328 15.8125 4.94141 15.8125H10.8711C11.1192 15.8125 11.3203 15.6114 11.3203 15.3633C11.3203 15.1152 11.1192 14.9141 10.8711 14.9141H4.94141ZM4.94141 11.3203H10.8711C11.1192 11.3203 11.3203 11.5214 11.3203 11.7695C11.3203 12.0177 11.1192 12.2188 10.8711 12.2188H4.94141C4.69328 12.2188 4.49219 12.0177 4.49219 11.7695C4.49219 11.5214 4.69328 11.3203 4.94141 11.3203Z" fill="#353535"/>
</svg>
