<svg width="30" height="30" viewBox="0 0 30 30" fill="none" xmlns="http://www.w3.org/2000/svg">
<path d="M14.96 3C8.36698 3 3 8.36698 3 14.96C3 21.553 8.36698 26.92 14.96 26.92C18.4939 26.92 21.6763 25.3759 23.863 22.9337C23.9588 22.8328 24.0334 22.7137 24.0823 22.5834C24.1313 22.4532 24.1536 22.3145 24.148 22.1754C24.1424 22.0364 24.109 21.8999 24.0497 21.7741C23.9903 21.6482 23.9064 21.5355 23.8027 21.4427C23.6991 21.3498 23.5779 21.2787 23.4463 21.2336C23.3147 21.1884 23.1753 21.1702 23.0365 21.1798C22.8977 21.1895 22.7623 21.2269 22.6382 21.2899C22.5141 21.3528 22.4039 21.44 22.3141 21.5463C20.5041 23.5678 17.8897 24.84 14.96 24.84C9.4911 24.84 5.08 20.4289 5.08 14.96C5.08 9.4911 9.4911 5.08 14.96 5.08C17.8891 5.08 20.5036 6.35208 22.3141 8.37367C22.4039 8.47997 22.5141 8.56718 22.6382 8.63013C22.7623 8.69309 22.8977 8.7305 23.0365 8.74017C23.1753 8.74983 23.3147 8.73155 23.4463 8.6864C23.5779 8.64125 23.6991 8.57015 23.8027 8.47732C23.9064 8.38448 23.9903 8.2718 24.0497 8.14593C24.109 8.02007 24.1424 7.88358 24.148 7.74455C24.1536 7.60553 24.1313 7.46679 24.0823 7.33655C24.0334 7.20631 23.9588 7.08722 23.863 6.98633C21.6758 4.54424 18.4934 3 14.96 3ZM22.1963 10.2698C21.9895 10.2701 21.7875 10.332 21.616 10.4476C21.4446 10.5633 21.3115 10.7274 21.2338 10.919C21.156 11.1107 21.1372 11.3211 21.1797 11.5235C21.2221 11.7259 21.324 11.9111 21.4722 12.0553L23.3369 13.92H13.8875C13.7497 13.9181 13.6129 13.9435 13.485 13.9949C13.3571 14.0463 13.2407 14.1226 13.1425 14.2194C13.0444 14.3161 12.9665 14.4314 12.9133 14.5586C12.8601 14.6857 12.8327 14.8222 12.8327 14.96C12.8327 15.0978 12.8601 15.2343 12.9133 15.3614C12.9665 15.4886 13.0444 15.6039 13.1425 15.7006C13.2407 15.7974 13.3571 15.8737 13.485 15.9251C13.6129 15.9765 13.7497 16.0019 13.8875 16H23.3369L21.4722 17.8647C21.3724 17.9605 21.2927 18.0753 21.2378 18.2023C21.1829 18.3293 21.1539 18.466 21.1525 18.6044C21.1511 18.7427 21.1773 18.88 21.2296 19.0081C21.2819 19.1362 21.3592 19.2526 21.4571 19.3504C21.5549 19.4483 21.6713 19.5256 21.7994 19.5779C21.9275 19.6302 22.0648 19.6564 22.2031 19.655C22.3415 19.6536 22.4782 19.6246 22.6052 19.5697C22.7322 19.5148 22.847 19.4351 22.9428 19.3353L26.4904 15.7877C26.6185 15.6905 26.7222 15.5648 26.7935 15.4206C26.8648 15.2765 26.9017 15.1178 26.9013 14.957C26.9009 14.7961 26.8633 14.6376 26.7912 14.4938C26.7192 14.35 26.6149 14.2249 26.4863 14.1282L22.9428 10.5847C22.8458 10.4849 22.7297 10.4057 22.6015 10.3516C22.4733 10.2975 22.3355 10.2697 22.1963 10.2698Z" fill="#D92828"/>
</svg>
