<svg width="14" height="15" viewBox="0 0 14 15" fill="none" xmlns="http://www.w3.org/2000/svg">
<path fill-rule="evenodd" clip-rule="evenodd" d="M11.4862 6.21211C10.6052 7.11718 9.78522 7.9576 8.96622 8.79904C8.86122 8.90782 8.75622 9.01556 8.65022 9.12331C7.76322 10.0315 7.10822 10.0643 6.18223 9.19719C5.71023 8.75492 5.26923 8.27468 4.84023 7.78726C4.34223 7.22185 4.31623 6.49944 4.82623 5.93197C5.69423 4.96739 6.60622 4.04385 7.50522 3.108C7.63022 2.9787 7.78122 2.87609 7.95822 2.7314C7.28722 1.99052 6.66922 1.31634 6.06223 0.631892C5.94523 0.500545 5.87223 0.328151 5.72823 0.0911098C6.14523 0.0541683 6.43722 0.00593912 6.73022 0.00491297C8.68122 -0.00124395 10.6322 -0.00124395 12.5842 0.00286066C13.7682 0.00491297 13.9652 0.210144 13.9662 1.41074C13.9672 3.5513 13.9692 5.69083 13.9612 7.83138C13.9612 8.01609 13.8862 8.20182 13.8462 8.38653C13.6572 8.29007 13.4302 8.23466 13.2862 8.091C12.6882 7.49583 12.1152 6.87398 11.4862 6.21211Z" fill="#003354"/>
<path fill-rule="evenodd" clip-rule="evenodd" d="M6.1192 2.74221C5.5572 3.33943 5.0892 3.84943 4.6032 4.3389C4.5232 4.41894 4.3632 4.44254 4.2392 4.4446C3.7332 4.45691 3.2262 4.4446 2.7202 4.45075C2.0212 4.45999 1.6492 4.78733 1.6412 5.50461C1.6192 7.52203 1.6172 9.54048 1.6402 11.5569C1.6502 12.3911 1.9982 12.6846 2.8272 12.6856C4.6742 12.6867 6.5202 12.6867 8.3682 12.6846C9.3622 12.6836 9.7572 12.3501 9.6592 11.3455C9.5452 10.1911 9.8412 9.30036 10.7802 8.64157C10.9322 8.53485 11.0532 8.38092 11.2472 8.19109C11.2472 9.59076 11.3232 10.9032 11.2252 12.2023C11.1362 13.3916 10.0242 14.3398 8.8562 14.3521C6.7122 14.3726 4.5662 14.3757 2.4222 14.3521C1.20919 14.3377 0.0441934 13.1484 0.0261934 11.8863C-0.00580667 9.70158 -0.0108067 7.51485 0.0241934 5.33017C0.0481934 3.80941 0.982194 2.83867 2.5072 2.75452C3.6622 2.6909 4.8242 2.74221 6.1192 2.74221Z" fill="#003354"/>
</svg>
