<svg width="23" height="29" viewBox="0 0 23 29" fill="none" xmlns="http://www.w3.org/2000/svg">
<path fill-rule="evenodd" clip-rule="evenodd" d="M1.47942 22.331C1.97218 22.8327 2.63952 23.1137 3.33491 23.1119L12.4788 23.0658C13.0913 25.0844 14.5303 26.7312 16.4227 27.5793L17.0794 27.8721C17.1654 27.9105 17.263 27.9107 17.3492 27.8725L18.0888 27.5458C20.723 26.4133 22.4368 23.7753 22.437 20.8519V17.4549C22.437 17.3267 22.3681 17.2089 22.2576 17.1485L17.6484 14.6355L17.6044 6.70639L17.604 6.60719C17.6036 6.51493 17.5673 6.42672 17.5032 6.36207L11.6688 0.461985C11.6133 0.406131 11.5406 0.371287 11.4626 0.363821L11.3413 0.35184C11.33 0.350508 11.3187 0.350045 11.3077 0.350277L3.24095 0.390098C1.78477 0.397275 0.609908 1.61095 0.616526 3.10072L0.698041 20.4268C0.699625 21.1426 0.980882 21.8284 1.47942 22.331ZM21.7597 20.8519C21.7591 23.4972 20.2079 25.884 17.8238 26.9078L17.2155 27.1766L16.694 26.9442C14.3544 25.8974 12.8412 23.5336 12.8385 20.9206V17.6599L17.2339 15.1951L21.7597 17.6626V20.8519ZM16.4567 6.27841L13.7433 6.29173H13.7338C12.6556 6.2904 11.7808 5.39934 11.7744 4.2965L11.7614 1.52979L16.4567 6.27841Z" fill="#297A38"/>
<path d="M1.47942 22.331L1.65778 22.1558L1.65692 22.155L1.47942 22.331ZM3.33491 23.1119L3.33556 23.3619L3.33617 23.3619L3.33491 23.1119ZM12.4788 23.0658L12.718 22.9932L12.6639 22.8149L12.4776 22.8158L12.4788 23.0658ZM16.4227 27.5793L16.3205 27.8074L16.3209 27.8076L16.4227 27.5793ZM17.0794 27.8721L17.1814 27.6438L17.1812 27.6437L17.0794 27.8721ZM17.3492 27.8725L17.2482 27.6439L17.2479 27.644L17.3492 27.8725ZM18.0888 27.5458L17.9901 27.3161L17.9878 27.3171L18.0888 27.5458ZM22.437 20.8519L22.687 20.8519V20.8519H22.437ZM22.2576 17.1485L22.3775 16.9291L22.3773 16.929L22.2576 17.1485ZM17.6484 14.6355L17.3984 14.6369L17.3992 14.7844L17.5287 14.855L17.6484 14.6355ZM17.6044 6.7064L17.3544 6.70739L17.3544 6.70778L17.6044 6.7064ZM17.604 6.60719L17.854 6.60619V6.60596L17.604 6.60719ZM17.5032 6.36207L17.3254 6.53785L17.3257 6.53807L17.5032 6.36207ZM11.6688 0.461985L11.8465 0.286199L11.8461 0.285781L11.6688 0.461985ZM11.4626 0.363821L11.438 0.612611L11.4388 0.612683L11.4626 0.363821ZM11.3413 0.35184L11.3119 0.600156L11.3167 0.600629L11.3413 0.35184ZM11.3077 0.350277L11.3089 0.600306L11.3129 0.600222L11.3077 0.350277ZM3.24095 0.390098L3.24218 0.640095H3.24219L3.24095 0.390098ZM0.616526 3.10072L0.366529 3.10183L0.366529 3.1019L0.616526 3.10072ZM0.698041 20.4268L0.948041 20.4263L0.948038 20.4257L0.698041 20.4268ZM21.7597 20.8519L22.0097 20.852V20.8519H21.7597ZM17.8238 26.9078L17.7252 26.6781L17.7228 26.6791L17.8238 26.9078ZM17.2155 27.1766L17.1137 27.4049L17.215 27.4501L17.3165 27.4053L17.2155 27.1766ZM16.694 26.9442L16.5919 27.1724L16.5923 27.1725L16.694 26.9442ZM12.8385 20.9206H12.5885V20.9209L12.8385 20.9206ZM12.8385 17.6599L12.7162 17.4418L12.5885 17.5135V17.6599H12.8385ZM17.2339 15.1951L17.3535 14.9756L17.2322 14.9094L17.1116 14.977L17.2339 15.1951ZM21.7597 17.6626H22.0097V17.5142L21.8794 17.4431L21.7597 17.6626ZM16.4567 6.27841L16.458 6.52841L17.0526 6.52549L16.6345 6.10264L16.4567 6.27841ZM13.7433 6.29173V6.54173L13.7445 6.54172L13.7433 6.29173ZM13.7338 6.29173L13.7335 6.54173H13.7338V6.29173ZM11.7744 4.2965L11.5244 4.29768L11.5244 4.29795L11.7744 4.2965ZM11.7614 1.52979L11.9391 1.35401L11.5085 0.918466L11.5114 1.53097L11.7614 1.52979ZM1.30106 22.5062C1.84035 23.0553 2.57195 23.3639 3.33556 23.3619L3.33427 22.8619C2.70709 22.8636 2.10402 22.6102 1.65778 22.1558L1.30106 22.5062ZM3.33617 23.3619L12.4801 23.3158L12.4776 22.8158L3.33365 22.8619L3.33617 23.3619ZM12.2396 23.1384C12.8727 25.2248 14.3608 26.9292 16.3205 27.8074L16.5249 27.3511C14.6999 26.5332 13.31 24.9439 12.718 22.9932L12.2396 23.1384ZM16.3209 27.8076L16.9776 28.1004L17.1812 27.6437L16.5245 27.3509L16.3209 27.8076ZM16.9774 28.1003C17.1279 28.1676 17.2995 28.168 17.4505 28.1011L17.2479 27.644C17.2266 27.6534 17.2028 27.6534 17.1814 27.6438L16.9774 28.1003ZM17.4503 28.1012L18.1898 27.7745L17.9878 27.3171L17.2482 27.6439L17.4503 28.1012ZM18.1875 27.7755C20.9158 26.6026 22.6868 23.8727 22.687 20.8519L22.187 20.8519C22.1868 23.6779 20.5301 26.2241 17.9901 27.3161L18.1875 27.7755ZM22.687 20.8519V17.4549H22.187V20.8519H22.687ZM22.687 17.4549C22.687 17.2374 22.5701 17.0344 22.3775 16.9291L22.1377 17.3679C22.1661 17.3834 22.187 17.4159 22.187 17.4549H22.687ZM22.3773 16.929L17.7681 14.416L17.5287 14.855L22.1379 17.368L22.3773 16.929ZM17.8984 14.6341L17.8544 6.70501L17.3544 6.70778L17.3984 14.6369L17.8984 14.6341ZM17.8544 6.7054L17.854 6.60619L17.354 6.60819L17.3544 6.70739L17.8544 6.7054ZM17.854 6.60596C17.8532 6.44923 17.7917 6.29796 17.6808 6.18606L17.3257 6.53807C17.3429 6.55548 17.3539 6.58063 17.354 6.60842L17.854 6.60596ZM17.681 6.18628L11.8465 0.2862L11.491 0.63777L17.3254 6.53785L17.681 6.18628ZM11.8461 0.285781C11.7502 0.189288 11.6235 0.128085 11.4864 0.114958L11.4388 0.612683C11.4576 0.614489 11.4763 0.622973 11.4914 0.638188L11.8461 0.285781ZM11.4872 0.115032L11.3659 0.103051L11.3167 0.600629L11.438 0.61261L11.4872 0.115032ZM11.3707 0.10357C11.3468 0.100754 11.3239 0.0998814 11.3024 0.100332L11.3129 0.600222C11.3135 0.600209 11.3132 0.600262 11.3119 0.60011L11.3707 0.10357ZM11.3065 0.10028L3.23972 0.140101L3.24219 0.640095L11.3089 0.600274L11.3065 0.10028ZM3.23972 0.140101C1.64013 0.147985 0.359321 1.47949 0.366529 3.10183L0.866524 3.09961C0.860494 1.74242 1.92941 0.646565 3.24218 0.640095L3.23972 0.140101ZM0.366529 3.1019L0.448044 20.428L0.948038 20.4257L0.866524 3.09954L0.366529 3.1019ZM0.448042 20.4274C0.449769 21.2081 0.756466 21.9571 1.30192 22.5071L1.65692 22.155C1.2053 21.6996 0.949481 21.0772 0.948041 20.4263L0.448042 20.4274ZM21.5097 20.8518C21.5091 23.3998 20.0151 25.6947 17.7252 26.6781L17.9225 27.1375C20.4007 26.0733 22.0091 23.5946 22.0097 20.852L21.5097 20.8518ZM17.7228 26.6791L17.1144 26.9479L17.3165 27.4053L17.9249 27.1365L17.7228 26.6791ZM17.3173 26.9482L16.7958 26.7158L16.5923 27.1725L17.1137 27.4049L17.3173 26.9482ZM16.7961 26.716C14.5486 25.7104 13.0911 23.4373 13.0885 20.9203L12.5885 20.9209C12.5913 23.6298 14.1602 26.0844 16.5919 27.1724L16.7961 26.716ZM13.0885 20.9206V17.6599H12.5885V20.9206H13.0885ZM12.9608 17.8779L17.3561 15.4131L17.1116 14.977L12.7162 17.4418L12.9608 17.8779ZM17.1142 15.4146L21.6401 17.8821L21.8794 17.4431L17.3535 14.9756L17.1142 15.4146ZM21.5097 17.6626V20.8519H22.0097V17.6626H21.5097ZM16.4555 6.02842L13.7421 6.04173L13.7445 6.54172L16.458 6.52841L16.4555 6.02842ZM13.7433 6.04173H13.7338V6.54173H13.7433V6.04173ZM13.7341 6.04173C12.7987 6.04057 12.03 5.26589 12.0244 4.29505L11.5244 4.29795C11.5316 5.53279 12.5126 6.54022 13.7335 6.54173L13.7341 6.04173ZM12.0244 4.29532L12.0114 1.52861L11.5114 1.53097L11.5244 4.29768L12.0244 4.29532ZM11.5836 1.70556L16.279 6.45419L16.6345 6.10264L11.9391 1.35401L11.5836 1.70556Z" fill="#297A38"/>
<path fill-rule="evenodd" clip-rule="evenodd" d="M9.7652 13.066H8.72604C8.55652 13.066 8.41943 13.256 8.41943 13.4899C8.41943 13.7244 8.55652 13.9138 8.72604 13.9138H9.7652C9.93431 13.9138 10.0717 13.7244 10.0717 13.4899C10.0717 13.256 9.93431 13.066 9.7652 13.066Z" fill="#E2F2E5"/>
<path fill-rule="evenodd" clip-rule="evenodd" d="M4.21824 10.9467H13.8598C14.0488 10.9467 14.2022 10.757 14.2022 10.5229C14.2022 10.289 14.0488 10.099 13.8598 10.099H4.21824C4.02903 10.099 3.87585 10.289 3.87585 10.5229C3.87585 10.757 4.02903 10.9467 4.21824 10.9467Z" fill="#E2F2E5"/>
<path fill-rule="evenodd" clip-rule="evenodd" d="M4.22077 13.9138H7.24843C7.43875 13.9138 7.59335 13.7244 7.59335 13.4899C7.59335 13.256 7.43875 13.066 7.24843 13.066H4.22077C4.03017 13.066 3.87585 13.256 3.87585 13.4899C3.87585 13.7244 4.03017 13.9138 4.22077 13.9138Z" fill="#E2F2E5"/>
<path fill-rule="evenodd" clip-rule="evenodd" d="M15.6298 20.5638C15.5513 20.4615 15.4284 20.4126 15.3079 20.4366C15.1875 20.4605 15.0881 20.5529 15.0475 20.6788C15.0071 20.8047 15.032 20.9447 15.1125 21.045L16.3974 22.6846C16.5174 22.8379 16.7273 22.8585 16.8706 22.7315L19.8633 20.0789C20.006 19.9488 20.0261 19.718 19.9088 19.5606C19.7915 19.4032 19.5798 19.3781 19.4338 19.5038L16.6989 21.9283L15.6298 20.5638Z" fill="#297A38" stroke="#297A38" stroke-width="0.5"/>
</svg>
