<svg width="25" height="24" viewBox="0 0 25 24" fill="none" xmlns="http://www.w3.org/2000/svg">
<g clip-path="url(#clip0_1160_7791)">
<path fill-rule="evenodd" clip-rule="evenodd" d="M12.5 0C5.876 0 0.5 5.376 0.5 12C0.5 18.624 5.876 24 12.5 24C19.124 24 24.5 18.624 24.5 12C24.5 5.376 19.124 0 12.5 0Z" fill="#297A38"/>
<path d="M11.689 14.869C11.689 14.4723 11.7513 14.121 11.876 13.815C12.012 13.509 12.1763 13.237 12.369 12.999C12.573 12.761 12.7883 12.54 13.015 12.336C13.2417 12.132 13.4513 11.9393 13.644 11.758C13.848 11.5653 14.0123 11.367 14.137 11.163C14.273 10.959 14.341 10.7323 14.341 10.483C14.341 10.075 14.171 9.74633 13.831 9.497C13.5023 9.24767 13.0603 9.123 12.505 9.123C11.9723 9.123 11.4963 9.23633 11.077 9.463C10.6577 9.67833 10.312 9.98433 10.04 10.381L7.983 9.174C8.43633 8.48267 9.06533 7.933 9.87 7.525C10.6747 7.10567 11.6493 6.896 12.794 6.896C13.644 6.896 14.392 7.02067 15.038 7.27C15.684 7.508 16.1883 7.85933 16.551 8.324C16.925 8.78867 17.112 9.361 17.112 10.041C17.112 10.483 17.044 10.874 16.908 11.214C16.772 11.554 16.5963 11.8487 16.381 12.098C16.1657 12.3473 15.9333 12.5797 15.684 12.795C15.446 13.0103 15.2193 13.22 15.004 13.424C14.7887 13.628 14.6073 13.8433 14.46 14.07C14.324 14.2967 14.256 14.563 14.256 14.869H11.689ZM12.981 19.136C12.505 19.136 12.114 18.983 11.808 18.677C11.502 18.371 11.349 18.0083 11.349 17.589C11.349 17.1583 11.502 16.8013 11.808 16.518C12.114 16.2233 12.505 16.076 12.981 16.076C13.4683 16.076 13.8593 16.2233 14.154 16.518C14.46 16.8013 14.613 17.1583 14.613 17.589C14.613 18.0083 14.46 18.371 14.154 18.677C13.8593 18.983 13.4683 19.136 12.981 19.136Z" fill="white"/>
</g>
<defs>
<clipPath id="clip0_1160_7791">
<rect width="24" height="24" fill="white" transform="translate(0.5)"/>
</clipPath>
</defs>
</svg>
