<svg width="15" height="14" viewBox="0 0 15 14" fill="none" xmlns="http://www.w3.org/2000/svg">
<path fill-rule="evenodd" clip-rule="evenodd" d="M6.88128 0.256281C7.22299 -0.0854269 7.77701 -0.0854269 8.11872 0.256281L14.2437 6.38126C14.4939 6.63151 14.5688 7.00786 14.4334 7.33482C14.2979 7.66178 13.9789 7.87497 13.625 7.87497H12.75V13.125C12.75 13.6082 12.3582 13.9999 11.875 13.9999H10.125C9.64174 13.9999 9.24999 13.6082 9.24999 13.125V10.5C9.24999 10.0167 8.85824 9.62496 8.375 9.62496H6.625C6.14176 9.62496 5.75001 10.0167 5.75001 10.5V13.125C5.75001 13.6082 5.35826 13.9999 4.87501 13.9999H3.12502C2.64177 13.9999 2.25002 13.6082 2.25002 13.125V7.87497H1.37502C1.02112 7.87497 0.702064 7.66178 0.566631 7.33482C0.431198 7.00786 0.506059 6.63151 0.756306 6.38126L6.88128 0.256281Z" fill="#003354"/>
</svg>
