<svg width="25" height="24" viewBox="0 0 25 24" fill="none" xmlns="http://www.w3.org/2000/svg">
<circle cx="12.5" cy="12" r="12" fill="#E8F2F9"/>
<path fill-rule="evenodd" clip-rule="evenodd" d="M11.8813 5.25628C12.223 4.91457 12.777 4.91457 13.1187 5.25628L19.2437 11.3813C19.4939 11.6315 19.5688 12.0079 19.4334 12.3348C19.2979 12.6618 18.9789 12.875 18.625 12.875H17.75V18.125C17.75 18.6082 17.3582 18.9999 16.875 18.9999H15.125C14.6417 18.9999 14.25 18.6082 14.25 18.125V15.5C14.25 15.0167 13.8582 14.625 13.375 14.625H11.625C11.1418 14.625 10.75 15.0167 10.75 15.5V18.125C10.75 18.6082 10.3583 18.9999 9.87501 18.9999H8.12502C7.64177 18.9999 7.25002 18.6082 7.25002 18.125V12.875H6.37502C6.02112 12.875 5.70206 12.6618 5.56663 12.3348C5.4312 12.0079 5.50606 11.6315 5.75631 11.3813L11.8813 5.25628Z" fill="#003354"/>
</svg>
