<svg width="20" height="20" viewBox="0 0 20 20" fill="none" xmlns="http://www.w3.org/2000/svg">
<g clip-path="url(#clip0_1160_7899)">
<path d="M17.739 0.626083H2.26204C1.01449 0.626083 0 1.64024 0 2.88926V17.1135C0 18.3611 1.01449 19.3742 2.26204 19.3742H17.739C18.9865 19.3742 19.9999 18.3611 19.9999 17.1135V2.88926C20 1.64024 18.9866 0.626083 17.739 0.626083ZM12.933 3.99187C14.1395 3.99187 15.1179 4.97034 15.1179 6.17671C15.1179 7.38309 14.1394 8.36156 12.933 8.36156C11.7262 8.36156 10.7482 7.38309 10.7482 6.17671C10.7482 4.97034 11.7262 3.99187 12.933 3.99187ZM17.0296 17.2832H9.9998H3.28317C2.67974 17.2832 2.41101 16.8466 2.68302 16.308L6.43263 8.88123C6.70431 8.34268 7.22211 8.29461 7.58879 8.77378L11.3592 13.701C11.7258 14.1803 12.3668 14.221 12.7909 13.7917L13.7133 12.8577C14.1372 12.4283 14.7617 12.4815 15.1076 12.9756L17.4961 16.3873C17.8413 16.8822 17.633 17.2832 17.0296 17.2832Z" fill="#505051"/>
</g>
<defs>
<clipPath id="clip0_1160_7899">
<rect width="20" height="20" fill="white"/>
</clipPath>
</defs>
</svg>
