<?xml version="1.0" encoding="utf-8"?>
<svg width="40" height="40" viewBox="0 0 40 40" fill="none" xmlns="http://www.w3.org/2000/svg">
<circle cx="20" cy="20" r="20" fill="#0073E6"/>
<path fill-rule="evenodd" clip-rule="evenodd" d="M22.2629 26.1289C22.2301 26.8673 22.9275 27.2366 24.3552 27.2366V29.2304H15.666V27.2366C17.0609 27.2366 17.7583 26.8673 17.7583 26.1289V19.8027C17.7583 19.0478 17.0609 18.6704 15.666 18.6704V16.7012H22.2629V26.1289ZM22.486 12.7135C22.486 13.0581 22.4203 13.3822 22.2891 13.6858C22.1578 13.9894 21.9814 14.2561 21.7598 14.4858C21.5383 14.7155 21.2757 14.8961 20.9721 15.0273C20.6685 15.1586 20.3444 15.2243 19.9998 15.2243C19.6552 15.2243 19.3352 15.1586 19.0398 15.0273C18.7444 14.8961 18.4819 14.7155 18.2521 14.4858C18.0224 14.2561 17.8419 13.9894 17.7106 13.6858C17.5793 13.3822 17.5137 13.0581 17.5137 12.7135C17.5137 12.3689 17.5793 12.0489 17.7106 11.7535C17.8419 11.4581 18.0224 11.1996 18.2521 10.9781C18.4819 10.7566 18.7444 10.5802 19.0398 10.4489C19.3352 10.3176 19.6552 10.252 19.9998 10.252C20.3444 10.252 20.6685 10.3176 20.9721 10.4489C21.2757 10.5802 21.5383 10.7566 21.7598 10.9781C21.9814 11.1996 22.1578 11.4581 22.2891 11.7535C22.4203 12.0489 22.486 12.3689 22.486 12.7135Z" fill="white"/>
</svg>
