<svg width="22" height="27" viewBox="0 0 22 27" fill="none" xmlns="http://www.w3.org/2000/svg">
<path d="M16.7886 8.9841C16.7886 9.36289 17.1049 9.65813 17.4763 9.65813C17.8491 9.65813 18.1683 9.36889 18.1683 8.9841V7.81856C18.1683 3.98998 14.9566 0.892822 11.0289 0.892822C7.10113 0.892822 3.89282 3.99013 3.89282 7.81856V8.9841C3.89282 9.36168 4.20457 9.65813 4.58049 9.65813C4.95104 9.65813 5.26926 9.3637 5.26926 8.9841V7.81856C5.26926 4.75093 7.84717 2.2462 11.0289 2.2462C14.2139 2.2462 16.7886 4.75085 16.7886 7.81856V8.9841Z" fill="#297A38" stroke="#297A38" stroke-width="0.5"/>
<path fill-rule="evenodd" clip-rule="evenodd" d="M19.7 26.8571H2.36116C1.31907 26.8571 0.46936 26.0449 0.46936 25.0478V11.2173C0.46936 10.2169 1.31907 9.40808 2.36116 9.40808H19.7046C20.7467 9.40808 21.5918 10.2213 21.5918 11.2173V25.0478C21.5918 26.0449 20.7467 26.8571 19.7 26.8571Z" fill="#297A38"/>
<path fill-rule="evenodd" clip-rule="evenodd" d="M11.0287 23.1836C10.1853 23.1836 9.49692 22.5011 9.49692 21.6601V19.1148C8.46497 18.5537 7.81628 17.4798 7.81628 16.2895C7.81628 14.5183 9.26001 13.0815 11.0287 13.0815C12.8011 13.0815 14.2449 14.5233 14.2449 16.2895C14.2449 17.4798 13.5962 18.5537 12.5642 19.1098V21.6601C12.5593 22.5011 11.8709 23.1836 11.0287 23.1836Z" fill="white"/>
</svg>
