<svg width="45" height="45" viewBox="0 0 45 45" fill="none" xmlns="http://www.w3.org/2000/svg">
<circle cx="22.6521" cy="22.031" r="22.031" fill="#E8F2F9"/>
<path d="M31.1426 20.9711C31.1426 21.914 31.914 22.6854 32.8569 22.6854H36.2854C37.2283 22.6854 37.9997 21.914 37.9997 20.9711C37.9997 20.0283 37.2283 19.2568 36.2854 19.2568H32.8569C31.914 19.2568 31.1426 20.0283 31.1426 20.9711Z" fill="#003354"/>
<path d="M29.7113 28.397C29.2409 28.9855 29.3692 29.8014 29.9964 30.2294C30.7519 30.751 31.5501 31.3128 32.3056 31.8478C32.9328 32.2891 33.8166 32.1688 34.2728 31.5803C34.2728 31.5669 34.287 31.5669 34.287 31.5535C34.7574 30.965 34.6291 30.1358 34.0019 29.7078C33.2464 29.1728 32.4482 28.611 31.7069 28.0894C31.0797 27.648 30.196 27.7818 29.7256 28.3703C29.7256 28.3837 29.7113 28.397 29.7113 28.397Z" fill="#003354"/>
<path d="M34.2914 10.4977C34.2914 10.4817 34.2771 10.4817 34.2771 10.4657C33.8054 9.76249 32.9192 9.61865 32.3045 10.1461C31.5469 10.7854 30.7322 11.4566 29.9889 12.0959C29.36 12.6233 29.2456 13.6142 29.7173 14.3014C29.7173 14.3174 29.7316 14.3174 29.7316 14.3334C30.2033 15.0366 31.0752 15.1805 31.7042 14.653C32.4618 14.0297 33.2622 13.3425 34.0198 12.7032C34.6344 12.1918 34.7488 11.2009 34.2914 10.4977Z" fill="#003354"/>
<path d="M16.8831 16.2896H10.961C9.33247 16.2896 8 17.7138 8 19.4544V22.6193C8 24.3599 9.33247 25.7841 10.961 25.7841H12.4416V30.5314C12.4416 31.4017 13.1078 32.1138 13.9221 32.1138C14.7364 32.1138 15.4026 31.4017 15.4026 30.5314V25.7841H16.8831L24.2857 30.5314V11.5424L16.8831 16.2896Z" fill="#003354"/>
<path d="M28.5714 20.9787C28.5714 18.9338 27.5771 17.0889 26 15.8281V26.1138C27.5771 24.8685 28.5714 23.0235 28.5714 20.9787Z" fill="#003354"/>
</svg>
