<svg width="43" height="62" viewBox="0 0 43 62" fill="none" xmlns="http://www.w3.org/2000/svg">
<path fill-rule="evenodd" clip-rule="evenodd" d="M38.8025 61H11.0857C9.66296 61 8.51025 59.7358 8.51025 58.1741V3.82595C8.51025 2.26533 9.66296 1 11.0857 1H38.8025C40.2242 1 41.3769 2.26533 41.3769 3.82595V58.1741C41.3769 59.7358 40.2242 61 38.8025 61Z" fill="white"/>
<path fill-rule="evenodd" clip-rule="evenodd" d="M38.8025 61H11.0857C9.66296 61 8.51025 59.7358 8.51025 58.1741V3.82595C8.51025 2.26533 9.66296 1 11.0857 1H38.8025C40.2242 1 41.3769 2.26533 41.3769 3.82595V58.1741C41.3769 59.7358 40.2242 61 38.8025 61Z" stroke="#3D3D3D" stroke-width="2"/>
<path fill-rule="evenodd" clip-rule="evenodd" d="M26.6437 56.4722C26.6437 57.7222 25.6289 58.7358 24.3765 58.7358C23.1251 58.7358 22.1104 57.7222 22.1104 56.4722C22.1104 55.2222 23.1251 54.2075 24.3765 54.2075C25.6289 54.2075 26.6437 55.2222 26.6437 56.4722Z" fill="white"/>
<path fill-rule="evenodd" clip-rule="evenodd" d="M26.6437 56.4722C26.6437 57.7222 25.6289 58.7358 24.3765 58.7358C23.1251 58.7358 22.1104 57.7222 22.1104 56.4722C22.1104 55.2222 23.1251 54.2075 24.3765 54.2075C25.6289 54.2075 26.6437 55.2222 26.6437 56.4722Z" stroke="#3D3D3D" stroke-width="2"/>
<path d="M41.1628 51.1562H8.17383" stroke="#3D3D3D" stroke-width="2"/>
<path d="M41.1628 7.57348H8.17383" stroke="#3D3D3D" stroke-width="2"/>
<path d="M22.2251 4.7323H26.1501" stroke="#3D3D3D" stroke-width="2"/>
<path fill-rule="evenodd" clip-rule="evenodd" d="M13.6849 28.415C12.5368 28.9465 11.3109 29.216 10.0396 29.216C5.26313 29.216 1.37695 25.3543 1.37695 20.6077C1.37695 15.8613 5.26313 12 10.0396 12C14.8161 12 18.7023 15.8613 18.7023 20.6077C18.7023 21.9389 18.3845 23.2697 17.782 24.4632L27.377 34.3208V38H23.1049V37.0148H21.9483V34.8805H19.8001V32.4177H17.5521L13.6849 28.415ZM8.15956 19.913C9.40821 19.913 10.4204 18.9008 10.4204 17.6522C10.4204 16.4035 9.40821 15.3913 8.15956 15.3913C6.91092 15.3913 5.89869 16.4035 5.89869 17.6522C5.89869 18.9008 6.91092 19.913 8.15956 19.913Z" fill="white"/>
<path d="M13.6849 28.415L14.4041 27.7202L13.9101 27.2089L13.2649 27.5075L13.6849 28.415ZM17.782 24.4632L16.8893 24.0126L16.5677 24.6495L17.0654 25.1607L17.782 24.4632ZM27.377 34.3208H28.377V33.9144L28.0935 33.6233L27.377 34.3208ZM27.377 38V39H28.377V38H27.377ZM23.1049 38H22.1049V39H23.1049V38ZM23.1049 37.0148H24.1049V36.0148H23.1049V37.0148ZM21.9483 37.0148H20.9483V38.0148H21.9483V37.0148ZM21.9483 34.8805H22.9483V33.8805H21.9483V34.8805ZM19.8001 34.8805H18.8001V35.8805H19.8001V34.8805ZM19.8001 32.4177H20.8001V31.4177H19.8001V32.4177ZM17.5521 32.4177L16.8329 33.1125L17.1278 33.4177H17.5521V32.4177ZM10.0396 30.216C11.4554 30.216 12.8247 29.9151 14.105 29.3225L13.2649 27.5075C12.249 27.9778 11.1664 28.216 10.0396 28.216V30.216ZM0.376953 20.6077C0.376953 25.9126 4.7168 30.216 10.0396 30.216V28.216C5.80946 28.216 2.37695 24.7961 2.37695 20.6077H0.376953ZM10.0396 11C4.71687 11 0.376953 15.303 0.376953 20.6077H2.37695C2.37695 16.4196 5.80939 13 10.0396 13V11ZM19.7023 20.6077C19.7023 15.303 15.3624 11 10.0396 11V13C14.2699 13 17.7023 16.4196 17.7023 20.6077H19.7023ZM18.6746 24.9139C19.3474 23.5814 19.7023 22.0962 19.7023 20.6077H17.7023C17.7023 21.7815 17.4216 22.9581 16.8893 24.0126L18.6746 24.9139ZM28.0935 33.6233L18.4985 23.7657L17.0654 25.1607L26.6604 35.0183L28.0935 33.6233ZM28.377 38V34.3208H26.377V38H28.377ZM23.1049 39H27.377V37H23.1049V39ZM22.1049 37.0148V38H24.1049V37.0148H22.1049ZM21.9483 38.0148H23.1049V36.0148H21.9483V38.0148ZM20.9483 34.8805V37.0148H22.9483V34.8805H20.9483ZM19.8001 35.8805H21.9483V33.8805H19.8001V35.8805ZM18.8001 32.4177V34.8805H20.8001V32.4177H18.8001ZM17.5521 33.4177H19.8001V31.4177H17.5521V33.4177ZM12.9657 29.1099L16.8329 33.1125L18.2713 31.7228L14.4041 27.7202L12.9657 29.1099ZM9.42043 17.6522C9.42043 18.3485 8.85592 18.913 8.15956 18.913V20.913C9.96049 20.913 11.4204 19.4531 11.4204 17.6522H9.42043ZM8.15956 16.3913C8.85592 16.3913 9.42043 16.9558 9.42043 17.6522H11.4204C11.4204 15.8512 9.96049 14.3913 8.15956 14.3913V16.3913ZM6.89869 17.6522C6.89869 16.9558 7.4632 16.3913 8.15956 16.3913V14.3913C6.35863 14.3913 4.89869 15.8512 4.89869 17.6522H6.89869ZM8.15956 18.913C7.4632 18.913 6.89869 18.3485 6.89869 17.6522H4.89869C4.89869 19.4531 6.35863 20.913 8.15956 20.913V18.913Z" fill="#353535"/>
</svg>
