<svg width="65" height="65" viewBox="0 0 65 65" fill="none" xmlns="http://www.w3.org/2000/svg">
<path fill-rule="evenodd" clip-rule="evenodd" d="M45.0242 31.3662C45.0224 38.0022 40.7353 43.9898 34.1463 46.5581L32.8389 47.0825C32.599 47.1787 32.3312 47.1783 32.0916 47.0813L31.0239 46.6494C24.5576 44.0234 20.3755 38.0935 20.3682 31.5385V23.9717C20.3682 23.5956 20.5793 23.2512 20.9145 23.0806L32.0685 17.4031C32.35 17.2598 32.6826 17.2579 32.9657 17.398L44.4677 23.0901C44.8085 23.2588 45.0242 23.6061 45.0242 23.9864V31.3662Z" fill="#297A38"/>
<path fill-rule="evenodd" clip-rule="evenodd" d="M29.0285 31.1226C28.8775 30.9307 28.6412 30.8391 28.4095 30.884C28.1779 30.9289 27.9868 31.1022 27.9087 31.3385C27.831 31.5748 27.8789 31.8375 28.0337 32.0257L30.5046 35.1025C30.7354 35.3902 31.1389 35.4287 31.4146 35.1906L37.1694 30.2127C37.4438 29.9686 37.4825 29.5355 37.2569 29.2402C37.0313 28.9449 36.6242 28.8977 36.3436 29.1336L31.0843 33.6833L29.0285 31.1226Z" fill="#EFF9F9" stroke="#D7F0F6" stroke-width="0.5"/>
</svg>
