<svg width="24" height="24" viewBox="0 0 24 24" fill="none" xmlns="http://www.w3.org/2000/svg">
<circle cx="12" cy="12" r="12" fill="#E8F2F9"/>
<path d="M11.6143 10C13.2711 10 14.6143 8.65685 14.6143 7C14.6143 5.34315 13.2711 4 11.6143 4C9.9574 4 8.61426 5.34315 8.61426 7C8.61426 8.65685 9.9574 10 11.6143 10Z" fill="#003354"/>
<path d="M5.07943 16.4935C4.88454 17.0016 5.05861 17.571 5.48846 17.9046C7.18081 19.218 9.30628 20 11.6144 20C13.9248 20 16.0523 19.2164 17.7455 17.9006C18.1751 17.5667 18.3488 16.9971 18.1536 16.4892C17.1443 13.8635 14.5984 12 11.6173 12C8.63457 12 6.08755 13.8656 5.07943 16.4935Z" fill="#003354"/>
</svg>
