<svg width="27" height="23" viewBox="0 0 27 23" fill="none" xmlns="http://www.w3.org/2000/svg">
<path fill-rule="evenodd" clip-rule="evenodd" d="M0.167969 0H26.3556V23H0.167969V0Z" fill="white"/>
<path fill-rule="evenodd" clip-rule="evenodd" d="M1.454 23C0.308118 23 -0.160756 22.188 0.412313 21.1956L12.2196 0.744502C12.7927 -0.248167 13.7305 -0.248167 14.3033 0.744502L26.1108 21.1956C26.6839 22.188 26.2148 23 25.0689 23H1.454Z" fill="#003354"/>
<path fill-rule="evenodd" clip-rule="evenodd" d="M11.9138 14.8944H14.6111V6.80236H11.9138V14.8944ZM13.2626 20.6931C12.2959 20.6931 11.5095 19.9089 11.5095 18.9403C11.5095 17.9728 12.2959 17.1872 13.2626 17.1872C14.2294 17.1872 15.0157 17.9728 15.0157 18.9403C15.0157 19.9089 14.2294 20.6931 13.2626 20.6931Z" fill="white"/>
</svg>
