<svg width="16" height="12" viewBox="0 0 16 12" fill="none" xmlns="http://www.w3.org/2000/svg">
<path fill-rule="evenodd" clip-rule="evenodd" d="M1.43472 2.99994e-05H13.3634C13.8975 2.99994e-05 14.2981 0.400631 14.2981 0.934751V1.11279H2.10245C1.87987 1.11279 1.70185 1.29083 1.70185 1.51339C1.70185 1.73595 1.87988 1.91399 2.10245 1.91399H14.2981V3.24931C14.2981 3.7389 13.8975 4.18403 13.3634 4.18403H11.8056C11.2715 4.18403 10.8709 4.58463 10.8709 5.07423V6.85461C10.8709 7.3442 11.2715 7.7448 11.8056 7.7448H13.3634C13.8975 7.7448 14.2981 8.18993 14.2981 8.67952V10.994C14.2981 11.5281 13.8975 11.9287 13.3634 11.9287H1.43472C0.900601 11.9287 0.5 11.5281 0.5 10.994V0.934721C0.5 0.400601 0.900601 2.99994e-05 1.43472 2.99994e-05Z" fill="#003354"/>
<path fill-rule="evenodd" clip-rule="evenodd" d="M11.939 4.362H14.6988C15.1439 4.362 15.5 4.71807 15.5 5.16322V6.76556C15.5 7.21069 15.1439 7.56678 14.6988 7.56678H11.939C11.4939 7.56678 11.1378 7.21071 11.1378 6.76556V5.16322C11.1378 4.71809 11.4939 4.362 11.939 4.362ZM12.5177 5.38569C12.8292 5.38569 13.0518 5.65279 13.0518 5.96433C13.0518 6.27588 12.8292 6.49846 12.5177 6.49846C12.2061 6.49846 11.939 6.27588 11.939 5.96433C11.939 5.65279 12.2061 5.38569 12.5177 5.38569Z" fill="#003354"/>
</svg>
