<svg width="24" height="24" viewBox="0 0 24 24" fill="none" xmlns="http://www.w3.org/2000/svg">
<circle cx="12" cy="12" r="12" fill="#E8F2F9"/>
<path fill-rule="evenodd" clip-rule="evenodd" d="M5.43472 6.00003H17.3634C17.8975 6.00003 18.2981 6.40063 18.2981 6.93475V7.11279H6.10245C5.87987 7.11279 5.70185 7.29083 5.70185 7.51339C5.70185 7.73595 5.87988 7.91399 6.10245 7.91399H18.2981V9.24931C18.2981 9.7389 17.8975 10.184 17.3634 10.184H15.8056C15.2715 10.184 14.8709 10.5846 14.8709 11.0742V12.8546C14.8709 13.3442 15.2715 13.7448 15.8056 13.7448H17.3634C17.8975 13.7448 18.2981 14.1899 18.2981 14.6795V16.994C18.2981 17.5281 17.8975 17.9287 17.3634 17.9287H5.43472C4.9006 17.9287 4.5 17.5281 4.5 16.994V6.93472C4.5 6.4006 4.9006 6.00003 5.43472 6.00003Z" fill="#003354"/>
<path fill-rule="evenodd" clip-rule="evenodd" d="M15.939 10.362H18.6988C19.1439 10.362 19.5 10.7181 19.5 11.1632V12.7656C19.5 13.2107 19.1439 13.5668 18.6988 13.5668H15.939C15.4939 13.5668 15.1378 13.2107 15.1378 12.7656V11.1632C15.1378 10.7181 15.4939 10.362 15.939 10.362ZM16.5177 11.3857C16.8292 11.3857 17.0518 11.6528 17.0518 11.9643C17.0518 12.2759 16.8292 12.4985 16.5177 12.4985C16.2061 12.4985 15.939 12.2759 15.939 11.9643C15.939 11.6528 16.2061 11.3857 16.5177 11.3857Z" fill="#003354"/>
</svg>
