<svg width="10" height="24" viewBox="0 0 10 24" fill="none" xmlns="http://www.w3.org/2000/svg">
<path d="M9.63872 22.2098L9.63872 18.6935C9.63869 17.7241 8.84753 16.9353 7.87517 16.9353H6.27197C5.53529 16.9353 4.93604 16.3377 4.93593 15.6037L4.93889 8.67296C4.93889 7.93682 5.5364 7.34103 6.27491 7.34103C6.53314 7.34103 7.27465 7.34103 7.87811 7.34103C8.84623 7.34106 9.64168 6.56152 9.64163 5.58197L9.63608 2.07213C9.63606 1.10272 8.84493 0.314009 7.87512 0.314009C7.15257 0.31086 6.91949 0.309866 6.59551 0.308457C3.0889 0.30843 0.236075 3.15253 0.236075 6.64828L0.233194 17.6279C0.233166 21.132 3.07746 23.9679 6.5926 23.9679L7.8752 23.9679C8.84762 23.9679 9.63872 23.1792 9.63872 22.2098ZM7.87257 1.48609C8.19669 1.48609 8.46038 1.74892 8.46044 2.07304L8.46598 5.58288C8.46598 5.90678 8.20306 6.16889 7.87814 6.16892C7.55347 6.1689 7.29027 5.9065 7.29027 5.58282L7.29027 2.06407C7.29027 1.74387 7.55139 1.48469 7.87257 1.48609ZM1.4089 17.6281L1.41181 6.64839C1.41181 4.83012 2.34074 3.24093 3.75395 2.32071C4.88818 1.58215 6.11457 2.66825 6.11457 4.01883C6.11457 5.2306 5.00131 6.19791 4.26884 7.16494C3.95133 7.58412 3.76316 8.10626 3.76316 8.67274L3.76025 15.6032C3.76025 15.6032 3.76025 15.6033 3.76025 15.6034C3.76024 16.1693 3.94809 16.6913 4.26535 17.1106C4.99763 18.0785 6.1116 19.0462 6.1116 20.2585C6.1116 21.6089 4.88583 22.6958 3.75074 21.9588C2.33941 21.0425 1.4089 19.4575 1.4089 17.6281ZM7.87523 22.7959C7.55055 22.7959 7.28734 22.5335 7.28734 22.2098L7.28736 18.6935C7.28736 18.3698 7.55053 18.1074 7.87517 18.1074C8.19932 18.1075 8.46304 18.3703 8.46304 18.6935V22.2098C8.46304 22.533 8.19932 22.7959 7.87523 22.7959Z" fill="#353535"/>
</svg>
